HIERARCHY
ROOT joint_0
{
	OFFSET 0.000000 0.000000 0.000000
	CHANNELS 6 Xposition Yposition Zposition Zrotation Yrotation Xrotation 
	JOINT joint_1
	{
		OFFSET 7.683380 1.521202 101.454956
		CHANNELS 3 Zrotation Yrotation Xrotation
		JOINT joint_2
		{
			OFFSET -4.816528 0.859650 92.807007
			CHANNELS 3 Zrotation Yrotation Xrotation
			JOINT joint_3
			{
				OFFSET -7.237778 1.114670 92.543091
				CHANNELS 3 Zrotation Yrotation Xrotation
				JOINT joint_4
				{
					OFFSET 0.479660 2.971886 127.844971
					CHANNELS 3 Zrotation Yrotation Xrotation
					JOINT joint_5
					{
						OFFSET 15.211349 9.937172 76.390015
						CHANNELS 3 Zrotation Yrotation Xrotation
						End Site
						{
							OFFSET 0.000000 0.000000 0.000000
						}
					}
				}
				JOINT joint_6
				{
					OFFSET 2.887054 -26.053230 72.331909
					CHANNELS 3 Zrotation Yrotation Xrotation
					JOINT joint_7
					{
						OFFSET 10.229767 -132.540291 -13.979004
						CHANNELS 3 Zrotation Yrotation Xrotation
						JOINT joint_8
						{
							OFFSET 17.695633 -10.988861 -262.204956
							CHANNELS 3 Zrotation Yrotation Xrotation
							JOINT joint_9
							{
								OFFSET 11.003433 -0.031860 -255.909973
								CHANNELS 3 Zrotation Yrotation Xrotation
								End Site
								{
									OFFSET 0.000000 0.000000 0.000000
								}
							}
						}
					}
				}
				JOINT joint_10
				{
					OFFSET -2.092239 29.348854 71.062988
					CHANNELS 3 Zrotation Yrotation Xrotation
					JOINT joint_11
					{
						OFFSET -11.853149 131.935837 -17.877075
						CHANNELS 3 Zrotation Yrotation Xrotation
						JOINT joint_12
						{
							OFFSET 14.084503 10.700203 -262.437012
							CHANNELS 3 Zrotation Yrotation Xrotation
							JOINT joint_13
							{
								OFFSET 48.202347 13.087273 -251.229919
								CHANNELS 3 Zrotation Yrotation Xrotation
								End Site
								{
									OFFSET 0.000000 0.000000 0.000000
								}
							}
						}
					}
				}
			}
		}
	}
	JOINT joint_14
	{
		OFFSET 4.150818 -83.296913 -102.580017
		CHANNELS 3 Zrotation Yrotation Xrotation
		JOINT joint_15
		{
			OFFSET -36.423187 -7.342392 -449.858948
			CHANNELS 3 Zrotation Yrotation Xrotation
			JOINT joint_16
			{
				OFFSET -41.100235 -7.280350 -426.202026
				CHANNELS 3 Zrotation Yrotation Xrotation
				JOINT joint_17
				{
					OFFSET 175.972961 13.159744 -75.358000
					CHANNELS 3 Zrotation Yrotation Xrotation
					End Site
					{
						OFFSET 0.000000 0.000000 0.000000
					}
				}
			}
		}
	}
	JOINT joint_18
	{
		OFFSET -9.062592 83.477568 -102.093018
		CHANNELS 3 Zrotation Yrotation Xrotation
		JOINT joint_19
		{
			OFFSET -39.145699 -6.092751 -449.645996
			CHANNELS 3 Zrotation Yrotation Xrotation
			JOINT joint_20
			{
				OFFSET -32.926178 -7.016375 -426.911980
				CHANNELS 3 Zrotation Yrotation Xrotation
				JOINT joint_21
				{
					OFFSET 176.289299 16.780729 -73.883997
					CHANNELS 3 Zrotation Yrotation Xrotation
					End Site
					{
						OFFSET 0.000000 0.000000 0.000000
					}
				}
			}
		}
	}
}
MOTION
Frames: 13
Frame Time: 0.016667
-102.014626 -57.365303 1074.844971 -0.835341 3.363878 1.849632 -2.676873 9.110019 -0.526199 -2.736456 -1.269568 0.320055 -2.802811 1.421837 0.009375 1.612674 -10.783792 1.325492 0.000000 0.000000 0.000000 5.556036 3.367092 -3.396459 0.072420 4.572777 4.157128 0.853008 -27.215888 1.939551 0.000000 0.000000 0.000000 -8.809368 3.700159 -1.130286 -0.288359 4.708129 -2.848131 -0.733440 -4.318299 -2.758561 0.000000 0.000000 0.000000 1.876549 -8.373674 -0.932801 1.486020 12.553006 0.859209 1.907473 -5.180164 1.191147 0.000000 0.000000 0.000000 1.350762 -4.131855 1.054214 1.574277 6.157269 -2.871920 1.454000 -1.702107 0.767341 0.000000 0.000000 0.000000 
-82.635017 -57.899166 1074.521973 -1.449341 4.097515 2.239763 -2.722794 8.833523 -1.274377 -2.806708 -1.142444 0.402839 -2.883457 1.331845 0.024250 1.481711 -10.534235 1.839453 0.000000 0.000000 0.000000 6.203768 3.912616 -3.104923 0.356126 5.117650 4.390810 1.111210 -34.631993 -0.671084 0.000000 0.000000 0.000000 -7.879156 4.961351 -0.106607 -0.208229 5.676933 -3.714038 -0.901495 -9.508785 -3.486250 0.000000 0.000000 0.000000 2.384498 -9.565270 -1.720706 1.878661 15.522826 1.478298 2.506161 -6.030355 1.497564 0.000000 0.000000 0.000000 1.517594 -3.747219 0.598817 1.718899 6.258005 -2.845627 1.600760 -1.973700 0.852519 0.000000 0.000000 0.000000 
-62.820293 -58.247932 1074.430054 -2.303567 5.067559 2.224967 -2.524147 8.174350 -1.389479 -2.716420 -1.059654 0.281055 -2.783932 1.269582 0.079405 1.226049 -9.738605 2.367059 0.000000 0.000000 0.000000 6.461672 4.048542 -3.172365 0.702702 5.214214 4.532896 1.412819 -42.259334 -3.678232 0.000000 0.000000 0.000000 -7.261277 5.914130 0.701323 0.078487 6.481379 -4.238243 -0.884869 -14.876507 -4.262526 0.000000 0.000000 0.000000 2.893508 -11.664250 -2.365465 2.270625 19.627574 2.508470 3.229187 -6.770146 1.836047 0.000000 0.000000 0.000000 1.725071 -3.781161 0.463352 1.925011 6.734331 -2.698495 1.829778 -2.241613 0.969515 0.000000 0.000000 0.000000 
-44.050571 -58.893803 1075.156006 -3.657365 6.530938 1.429705 -1.917817 7.176859 -0.450026 -2.359765 -0.975035 -0.077202 -2.394424 1.199671 0.183606 0.915590 -8.638795 2.827625 0.000000 0.000000 0.000000 6.006745 3.782349 -3.231619 1.086549 4.765497 4.019337 1.777851 -50.721274 -7.326289 0.000000 0.000000 0.000000 -7.339289 6.130048 1.415984 0.538740 6.691241 -4.417720 -0.715145 -19.821919 -4.720177 0.000000 0.000000 0.000000 3.370601 -15.405850 -2.626646 2.699883 25.446008 4.194441 4.165752 -7.091220 2.210492 0.000000 0.000000 0.000000 1.990660 -4.618256 1.072061 2.284303 7.625037 -2.501738 2.232209 -2.420772 1.145693 0.000000 0.000000 0.000000 
-25.421072 -59.516777 1076.463989 -5.337044 8.316999 0.183178 -1.062974 5.917524 0.892863 -1.788662 -0.924802 -0.367731 -1.799038 1.090851 0.325175 0.502802 -6.976479 3.253724 0.000000 0.000000 0.000000 4.869466 2.880388 -2.781499 1.431703 3.478641 2.413536 2.232127 -59.460650 -11.799691 0.000000 0.000000 0.000000 -7.992104 5.816086 1.921095 1.193690 6.500798 -4.213075 -0.392659 -25.018288 -4.936106 0.000000 0.000000 0.000000 3.727960 -20.381140 -2.740878 3.246896 32.609545 6.287092 5.370170 -6.319973 2.581564 0.000000 0.000000 0.000000 2.230750 -6.029209 2.001046 2.738557 8.878269 -2.165835 2.765622 -2.387790 1.349010 0.000000 0.000000 0.000000 
-7.329807 -60.441376 1077.582031 -6.943404 9.644612 -0.911274 -0.268040 4.745833 1.859420 -1.165603 -0.912482 -0.474230 -1.181609 0.945809 0.431185 0.137870 -5.608031 3.728907 0.000000 0.000000 0.000000 3.923027 1.358448 -2.860969 1.424326 1.730122 1.043085 2.581453 -67.538774 -14.614167 0.000000 0.000000 0.000000 -8.744984 5.277900 2.517017 1.622106 6.054456 -4.115094 -0.134659 -27.918604 -4.872028 0.000000 0.000000 0.000000 3.657634 -24.991433 -2.958437 3.578128 39.654685 8.134211 6.050773 -5.071995 2.699886 0.000000 0.000000 0.000000 2.359874 -7.266720 2.811683 3.174254 10.652321 -1.907164 3.308906 -2.360197 1.549637 0.000000 0.000000 0.000000 
9.771654 -61.887611 1077.995972 -8.507147 10.227933 -1.564123 0.361230 3.453281 2.199580 -0.491981 -0.782560 -0.489104 -0.519307 0.787615 0.436369 -0.080697 -5.204795 4.330578 0.000000 0.000000 0.000000 3.678660 -0.788515 -3.689916 0.528666 -0.164972 0.018087 2.469711 -75.810950 -13.820498 0.000000 0.000000 0.000000 -9.372708 4.688857 3.744020 1.410907 5.376692 -4.650927 -0.191758 -26.207185 -4.477875 0.000000 0.000000 0.000000 3.155668 -28.655714 -3.364382 3.483415 46.286419 9.441070 5.263562 -4.442453 2.330795 0.000000 0.000000 0.000000 2.437418 -8.129595 3.325008 3.601958 13.218935 -1.900826 3.860894 -2.569130 1.768322 0.000000 0.000000 0.000000 
26.061333 -63.720882 1077.990967 -10.091550 10.308426 -1.950450 0.863849 2.024819 2.210369 0.291674 -0.573576 -0.419645 0.262664 0.582745 0.346522 -0.206994 -5.450082 4.976502 0.000000 0.000000 0.000000 3.893262 -4.207908 -3.861612 -1.525063 -2.672774 -2.411776 1.783747 -83.739521 -9.709567 0.000000 0.000000 0.000000 -10.100824 3.885177 5.350364 0.692729 4.413193 -5.461995 -0.504134 -20.772242 -3.900538 0.000000 0.000000 0.000000 2.405778 -31.896495 -3.860348 3.177497 52.987439 10.399413 2.937696 -4.335481 1.469596 0.000000 0.000000 0.000000 2.454346 -8.827613 3.702426 4.041033 16.483462 -2.106879 4.431773 -2.783150 1.985046 0.000000 0.000000 0.000000 
42.171131 -66.000191 1077.650024 -11.107223 9.808977 -2.066983 1.129189 0.920975 2.213329 0.985912 -0.419949 -0.382397 0.982126 0.429202 0.269742 -0.288438 -5.929318 5.488902 0.000000 0.000000 0.000000 4.734524 -8.849900 -3.656378 -3.787111 -5.076378 -4.502402 0.452964 -88.985495 -3.919486 0.000000 0.000000 0.000000 -10.865691 3.373351 6.477097 0.043283 3.780551 -6.348234 -0.758871 -15.596668 -3.329363 0.000000 0.000000 0.000000 1.727954 -34.454149 -4.593593 2.962074 58.622966 10.958786 0.244318 -4.489855 0.522350 0.000000 0.000000 0.000000 2.363710 -8.924168 4.031208 4.333227 19.685890 -2.518682 4.832795 -2.661891 2.097588 0.000000 0.000000 0.000000 
58.831944 -68.570915 1076.833008 -11.256370 8.532450 -1.900328 1.187612 0.358488 2.410325 1.452467 -0.320228 -0.497993 1.506620 0.412559 0.314831 -0.346665 -6.412505 5.750927 0.000000 0.000000 0.000000 6.359505 -14.032557 -3.876361 -5.132085 -6.402476 -4.465490 178.327608 -88.126943 -177.189601 0.000000 0.000000 0.000000 -11.544636 3.890706 6.893920 -0.147563 4.041371 -7.911236 -0.738252 -13.955374 -2.317644 0.000000 0.000000 0.000000 1.338117 -36.193216 -5.910264 2.978945 62.809834 11.277360 -1.514646 -4.521880 -0.082259 0.000000 0.000000 0.000000 2.216929 -8.014405 4.312321 4.378621 22.458098 -3.100326 4.987128 -2.125744 2.074009 0.000000 0.000000 0.000000 
75.815048 -71.401390 1075.514038 -10.775320 6.456882 -1.465948 1.110034 0.244176 2.636514 1.721761 -0.157823 -0.624848 1.941061 0.349056 0.395853 -0.351404 -7.040403 5.659175 0.000000 0.000000 0.000000 8.725276 -19.949891 -3.629610 -6.773254 -7.323417 -4.074070 174.294785 -86.867299 -166.251508 0.000000 0.000000 0.000000 -12.136862 5.339407 7.007904 -0.117153 4.931504 -10.276222 -0.588391 -14.378096 -0.886168 0.000000 0.000000 0.000000 1.123486 -37.193942 -7.864750 3.036773 66.031087 11.414102 -2.660370 -4.503276 -0.463620 0.000000 0.000000 0.000000 2.090977 -6.211726 4.503422 4.191156 25.070166 -3.790225 4.950769 -1.234118 1.941310 0.000000 0.000000 0.000000 
91.655632 -75.411316 1074.512939 -9.656433 4.477127 -1.004429 0.885484 0.304079 2.688042 1.760573 0.031164 -0.601802 2.224918 0.128835 0.392360 -0.375643 -7.605212 5.403023 0.000000 0.000000 0.000000 10.811385 -26.215123 -2.453857 -12.279202 -8.406042 -3.896742 166.942417 -87.849546 -147.180131 0.000000 0.000000 0.000000 -12.566706 6.628694 7.226246 -0.113784 5.678469 -12.255882 -0.475896 -14.749245 0.274834 0.000000 0.000000 0.000000 0.653592 -37.858080 -9.589037 2.694748 67.375778 10.765151 -3.856813 -4.759790 -0.856355 0.000000 0.000000 0.000000 1.844771 -4.414132 4.771251 3.744887 27.161612 -4.355332 4.688890 -0.025517 1.697084 0.000000 0.000000 0.000000 
104.930565 -81.438644 1074.624023 -7.868115 3.342317 -0.703093 0.516061 0.129696 2.459184 1.595126 0.177322 -0.474221 2.179835 -0.070643 0.299012 -0.489537 -8.003864 5.323984 0.000000 0.000000 0.000000 11.890113 -32.522661 -1.135848 -28.057531 -9.457594 -1.808840 -28.084500 -86.698132 69.853595 0.000000 0.000000 0.000000 -12.701999 6.860792 7.724189 -0.219579 5.579228 -12.877610 -0.444089 -13.431592 0.796645 0.000000 0.000000 0.000000 -0.543219 -38.574772 -10.233330 1.533803 65.849006 8.589127 -5.886981 -5.468940 -1.539161 0.000000 0.000000 0.000000 1.288430 -3.444480 5.290706 3.096176 28.547304 -4.703602 4.216784 1.358376 1.368696 0.000000 0.000000 0.000000 
